ISO-10303-21;
HEADER;
/* Generated by software containing ST-Developer
 * from STEP Tools, Inc. (www.steptools.com) 
 */
/* OPTION: using custom renumber hook */

FILE_DESCRIPTION(
/* description */ ('STEP AP242 Edition 2',
'CAx-IF Rec.Pracs.---Representation and Presentation of Product Manufa
cturing Information (PMI)---4.0---2014-10-13',
'CAx-IF Rec.Pracs.---3D Tessellated Geometry---0.4---2014-09-14','2;1',
'CAx-IF Rec.Pracs.---User Defined Attributes---1.5---2016-08-15'),
/* implementation_level */ '2;1');

FILE_NAME(
/* name */ 'Part Studio 1 - Stand',
/* time_stamp */ '2026-08-07T19:51:32Z',
/* author */ (''),
/* organization */ (''),
/* preprocessor_version */ 'ST-DEVELOPER v20',
/* originating_system */ 'ONSHAPE BY PTC INC, 1.219',
/* authorisation */ '  ');

FILE_SCHEMA (('AP242_MANAGED_MODEL_BASED_3D_ENGINEERING_MIM_LF { 1 0 10303 442 3 1 4 }'));
ENDSEC;

DATA;
#10=SHAPE_REPRESENTATION_RELATIONSHIP('','',#220,#11);
#11=ADVANCED_BREP_SHAPE_REPRESENTATION('',(#218),#342);
#12=ORIENTED_EDGE('',*,*,#66,.F.);
#13=ORIENTED_EDGE('',*,*,#67,.F.);
#14=ORIENTED_EDGE('',*,*,#68,.T.);
#15=ORIENTED_EDGE('',*,*,#69,.T.);
#16=ORIENTED_EDGE('',*,*,#70,.F.);
#17=ORIENTED_EDGE('',*,*,#71,.F.);
#18=ORIENTED_EDGE('',*,*,#72,.T.);
#19=ORIENTED_EDGE('',*,*,#67,.T.);
#20=ORIENTED_EDGE('',*,*,#73,.F.);
#21=ORIENTED_EDGE('',*,*,#74,.F.);
#22=ORIENTED_EDGE('',*,*,#75,.T.);
#23=ORIENTED_EDGE('',*,*,#71,.T.);
#24=ORIENTED_EDGE('',*,*,#76,.F.);
#25=ORIENTED_EDGE('',*,*,#77,.F.);
#26=ORIENTED_EDGE('',*,*,#78,.T.);
#27=ORIENTED_EDGE('',*,*,#74,.T.);
#28=ORIENTED_EDGE('',*,*,#79,.F.);
#29=ORIENTED_EDGE('',*,*,#80,.F.);
#30=ORIENTED_EDGE('',*,*,#81,.T.);
#31=ORIENTED_EDGE('',*,*,#77,.T.);
#32=ORIENTED_EDGE('',*,*,#82,.F.);
#33=ORIENTED_EDGE('',*,*,#83,.F.);
#34=ORIENTED_EDGE('',*,*,#84,.T.);
#35=ORIENTED_EDGE('',*,*,#80,.T.);
#36=ORIENTED_EDGE('',*,*,#85,.T.);
#37=ORIENTED_EDGE('',*,*,#86,.F.);
#38=ORIENTED_EDGE('',*,*,#87,.F.);
#39=ORIENTED_EDGE('',*,*,#83,.T.);
#40=ORIENTED_EDGE('',*,*,#88,.F.);
#41=ORIENTED_EDGE('',*,*,#89,.F.);
#42=ORIENTED_EDGE('',*,*,#90,.T.);
#43=ORIENTED_EDGE('',*,*,#86,.T.);
#44=ORIENTED_EDGE('',*,*,#91,.F.);
#45=ORIENTED_EDGE('',*,*,#69,.F.);
#46=ORIENTED_EDGE('',*,*,#92,.T.);
#47=ORIENTED_EDGE('',*,*,#89,.T.);
#48=ORIENTED_EDGE('',*,*,#68,.F.);
#49=ORIENTED_EDGE('',*,*,#72,.F.);
#50=ORIENTED_EDGE('',*,*,#75,.F.);
#51=ORIENTED_EDGE('',*,*,#78,.F.);
#52=ORIENTED_EDGE('',*,*,#81,.F.);
#53=ORIENTED_EDGE('',*,*,#84,.F.);
#54=ORIENTED_EDGE('',*,*,#87,.T.);
#55=ORIENTED_EDGE('',*,*,#90,.F.);
#56=ORIENTED_EDGE('',*,*,#92,.F.);
#57=ORIENTED_EDGE('',*,*,#66,.T.);
#58=ORIENTED_EDGE('',*,*,#91,.T.);
#59=ORIENTED_EDGE('',*,*,#88,.T.);
#60=ORIENTED_EDGE('',*,*,#85,.F.);
#61=ORIENTED_EDGE('',*,*,#82,.T.);
#62=ORIENTED_EDGE('',*,*,#79,.T.);
#63=ORIENTED_EDGE('',*,*,#76,.T.);
#64=ORIENTED_EDGE('',*,*,#73,.T.);
#65=ORIENTED_EDGE('',*,*,#70,.T.);
#66=EDGE_CURVE('',#93,#94,#111,.T.);
#67=EDGE_CURVE('',#95,#93,#112,.T.);
#68=EDGE_CURVE('',#95,#96,#113,.T.);
#69=EDGE_CURVE('',#96,#94,#114,.T.);
#70=EDGE_CURVE('',#97,#93,#115,.T.);
#71=EDGE_CURVE('',#98,#97,#116,.T.);
#72=EDGE_CURVE('',#98,#95,#117,.T.);
#73=EDGE_CURVE('',#99,#97,#118,.T.);
#74=EDGE_CURVE('',#100,#99,#119,.T.);
#75=EDGE_CURVE('',#100,#98,#120,.T.);
#76=EDGE_CURVE('',#101,#99,#121,.T.);
#77=EDGE_CURVE('',#102,#101,#122,.T.);
#78=EDGE_CURVE('',#102,#100,#123,.T.);
#79=EDGE_CURVE('',#103,#101,#124,.T.);
#80=EDGE_CURVE('',#104,#103,#125,.T.);
#81=EDGE_CURVE('',#104,#102,#126,.T.);
#82=EDGE_CURVE('',#105,#103,#127,.T.);
#83=EDGE_CURVE('',#106,#105,#128,.T.);
#84=EDGE_CURVE('',#106,#104,#129,.T.);
#85=EDGE_CURVE('',#105,#107,#130,.T.);
#86=EDGE_CURVE('',#108,#107,#131,.T.);
#87=EDGE_CURVE('',#106,#108,#132,.T.);
#88=EDGE_CURVE('',#109,#107,#133,.T.);
#89=EDGE_CURVE('',#110,#109,#134,.T.);
#90=EDGE_CURVE('',#110,#108,#135,.T.);
#91=EDGE_CURVE('',#94,#109,#136,.T.);
#92=EDGE_CURVE('',#96,#110,#137,.T.);
#93=VERTEX_POINT('',#287);
#94=VERTEX_POINT('',#288);
#95=VERTEX_POINT('',#290);
#96=VERTEX_POINT('',#292);
#97=VERTEX_POINT('',#296);
#98=VERTEX_POINT('',#298);
#99=VERTEX_POINT('',#302);
#100=VERTEX_POINT('',#304);
#101=VERTEX_POINT('',#308);
#102=VERTEX_POINT('',#310);
#103=VERTEX_POINT('',#314);
#104=VERTEX_POINT('',#316);
#105=VERTEX_POINT('',#320);
#106=VERTEX_POINT('',#322);
#107=VERTEX_POINT('',#326);
#108=VERTEX_POINT('',#328);
#109=VERTEX_POINT('',#332);
#110=VERTEX_POINT('',#334);
#111=LINE('',#286,#138);
#112=LINE('',#289,#139);
#113=LINE('',#291,#140);
#114=LINE('',#293,#141);
#115=LINE('',#295,#142);
#116=LINE('',#297,#143);
#117=LINE('',#299,#144);
#118=LINE('',#301,#145);
#119=LINE('',#303,#146);
#120=LINE('',#305,#147);
#121=LINE('',#307,#148);
#122=LINE('',#309,#149);
#123=LINE('',#311,#150);
#124=LINE('',#313,#151);
#125=LINE('',#315,#152);
#126=LINE('',#317,#153);
#127=LINE('',#319,#154);
#128=LINE('',#321,#155);
#129=LINE('',#323,#156);
#130=LINE('',#325,#157);
#131=LINE('',#327,#158);
#132=LINE('',#329,#159);
#133=LINE('',#331,#160);
#134=LINE('',#333,#161);
#135=LINE('',#335,#162);
#136=LINE('',#337,#163);
#137=LINE('',#338,#164);
#138=VECTOR('',#237,1.);
#139=VECTOR('',#238,1.);
#140=VECTOR('',#239,1.);
#141=VECTOR('',#240,1.);
#142=VECTOR('',#243,1.);
#143=VECTOR('',#244,1.);
#144=VECTOR('',#245,1.);
#145=VECTOR('',#248,1.);
#146=VECTOR('',#249,1.);
#147=VECTOR('',#250,1.);
#148=VECTOR('',#253,1.);
#149=VECTOR('',#254,1.);
#150=VECTOR('',#255,1.);
#151=VECTOR('',#258,1.);
#152=VECTOR('',#259,1.);
#153=VECTOR('',#260,1.);
#154=VECTOR('',#263,1.);
#155=VECTOR('',#264,1.);
#156=VECTOR('',#265,1.);
#157=VECTOR('',#268,1.);
#158=VECTOR('',#269,1.);
#159=VECTOR('',#270,1.);
#160=VECTOR('',#273,1.);
#161=VECTOR('',#274,1.);
#162=VECTOR('',#275,1.);
#163=VECTOR('',#278,1.);
#164=VECTOR('',#279,1.);
#165=EDGE_LOOP('',(#12,#13,#14,#15));
#166=EDGE_LOOP('',(#16,#17,#18,#19));
#167=EDGE_LOOP('',(#20,#21,#22,#23));
#168=EDGE_LOOP('',(#24,#25,#26,#27));
#169=EDGE_LOOP('',(#28,#29,#30,#31));
#170=EDGE_LOOP('',(#32,#33,#34,#35));
#171=EDGE_LOOP('',(#36,#37,#38,#39));
#172=EDGE_LOOP('',(#40,#41,#42,#43));
#173=EDGE_LOOP('',(#44,#45,#46,#47));
#174=EDGE_LOOP('',(#48,#49,#50,#51,#52,#53,#54,#55,#56));
#175=EDGE_LOOP('',(#57,#58,#59,#60,#61,#62,#63,#64,#65));
#176=FACE_BOUND('',#165,.T.);
#177=FACE_BOUND('',#166,.T.);
#178=FACE_BOUND('',#167,.T.);
#179=FACE_BOUND('',#168,.T.);
#180=FACE_BOUND('',#169,.T.);
#181=FACE_BOUND('',#170,.T.);
#182=FACE_BOUND('',#171,.T.);
#183=FACE_BOUND('',#172,.T.);
#184=FACE_BOUND('',#173,.T.);
#185=FACE_BOUND('',#174,.T.);
#186=FACE_BOUND('',#175,.T.);
#187=PLANE('',#222);
#188=PLANE('',#223);
#189=PLANE('',#224);
#190=PLANE('',#225);
#191=PLANE('',#226);
#192=PLANE('',#227);
#193=PLANE('',#228);
#194=PLANE('',#229);
#195=PLANE('',#230);
#196=PLANE('',#231);
#197=PLANE('',#232);
#198=ADVANCED_FACE('',(#176),#187,.T.);
#199=ADVANCED_FACE('',(#177),#188,.T.);
#200=ADVANCED_FACE('',(#178),#189,.T.);
#201=ADVANCED_FACE('',(#179),#190,.T.);
#202=ADVANCED_FACE('',(#180),#191,.T.);
#203=ADVANCED_FACE('',(#181),#192,.T.);
#204=ADVANCED_FACE('',(#182),#193,.F.);
#205=ADVANCED_FACE('',(#183),#194,.T.);
#206=ADVANCED_FACE('',(#184),#195,.T.);
#207=ADVANCED_FACE('',(#185),#196,.T.);
#208=ADVANCED_FACE('',(#186),#197,.F.);
#209=CLOSED_SHELL('',(#198,#199,#200,#201,#202,#203,#204,#205,#206,#207,
#208));
#210=STYLED_ITEM('',(#211),#218);
#211=PRESENTATION_STYLE_ASSIGNMENT((#212));
#212=SURFACE_STYLE_USAGE(.BOTH.,#213);
#213=SURFACE_SIDE_STYLE('',(#214));
#214=SURFACE_STYLE_FILL_AREA(#215);
#215=FILL_AREA_STYLE('',(#216));
#216=FILL_AREA_STYLE_COLOUR('',#217);
#217=COLOUR_RGB('',0.647058823529412,0.647058823529412,0.647058823529412);
#218=MANIFOLD_SOLID_BREP('Stand',#209);
#219=SHAPE_DEFINITION_REPRESENTATION(#347,#220);
#220=SHAPE_REPRESENTATION('Stand',(#221),#342);
#221=AXIS2_PLACEMENT_3D('',#284,#233,#234);
#222=AXIS2_PLACEMENT_3D('',#285,#235,#236);
#223=AXIS2_PLACEMENT_3D('',#294,#241,#242);
#224=AXIS2_PLACEMENT_3D('',#300,#246,#247);
#225=AXIS2_PLACEMENT_3D('',#306,#251,#252);
#226=AXIS2_PLACEMENT_3D('',#312,#256,#257);
#227=AXIS2_PLACEMENT_3D('',#318,#261,#262);
#228=AXIS2_PLACEMENT_3D('',#324,#266,#267);
#229=AXIS2_PLACEMENT_3D('',#330,#271,#272);
#230=AXIS2_PLACEMENT_3D('',#336,#276,#277);
#231=AXIS2_PLACEMENT_3D('',#339,#280,#281);
#232=AXIS2_PLACEMENT_3D('',#340,#282,#283);
#233=DIRECTION('',(0.,0.,1.));
#234=DIRECTION('',(1.,0.,0.));
#235=DIRECTION('',(0.,0.17364817766693,0.984807753012208));
#236=DIRECTION('',(0.,-0.984807753012208,0.17364817766693));
#237=DIRECTION('',(0.,0.984807753012208,-0.17364817766693));
#238=DIRECTION('',(-1.,0.,0.));
#239=DIRECTION('',(0.,0.984807753012208,-0.17364817766693));
#240=DIRECTION('',(-1.,0.,0.));
#241=DIRECTION('',(0.,-0.984807753012208,0.173648177666931));
#242=DIRECTION('',(0.,-0.173648177666931,-0.984807753012208));
#243=DIRECTION('',(0.,0.173648177666931,0.984807753012208));
#244=DIRECTION('',(-1.,0.,0.));
#245=DIRECTION('',(0.,0.173648177666931,0.984807753012208));
#246=DIRECTION('',(0.,-1.,0.));
#247=DIRECTION('',(0.,0.,-1.));
#248=DIRECTION('',(0.,0.,1.));
#249=DIRECTION('',(-1.,0.,0.));
#250=DIRECTION('',(0.,0.,1.));
#251=DIRECTION('',(0.,8.24553463093342E-17,-1.));
#252=DIRECTION('',(0.,1.,8.24553463093342E-17));
#253=DIRECTION('',(0.,-1.,-8.24553463093342E-17));
#254=DIRECTION('',(-1.,0.,0.));
#255=DIRECTION('',(0.,-1.,-8.24553463093342E-17));
#256=DIRECTION('',(0.,1.,0.));
#257=DIRECTION('',(0.,0.,1.));
#258=DIRECTION('',(0.,0.,-1.));
#259=DIRECTION('',(-1.,0.,0.));
#260=DIRECTION('',(0.,0.,-1.));
#261=DIRECTION('',(0.,0.,1.));
#262=DIRECTION('',(1.,0.,0.));
#263=DIRECTION('',(0.,1.,0.));
#264=DIRECTION('',(-1.,0.,0.));
#265=DIRECTION('',(0.,1.,0.));
#266=DIRECTION('',(0.,0.984807753012208,-0.17364817766693));
#267=DIRECTION('',(0.,0.17364817766693,0.984807753012208));
#268=DIRECTION('',(0.,-0.17364817766693,-0.984807753012208));
#269=DIRECTION('',(-1.,0.,0.));
#270=DIRECTION('',(0.,-0.17364817766693,-0.984807753012208));
#271=DIRECTION('',(0.,0.17364817766693,0.984807753012208));
#272=DIRECTION('',(0.,-0.984807753012208,0.17364817766693));
#273=DIRECTION('',(0.,0.984807753012208,-0.17364817766693));
#274=DIRECTION('',(-1.,0.,0.));
#275=DIRECTION('',(0.,0.984807753012208,-0.17364817766693));
#276=DIRECTION('',(0.,0.984807753012208,-0.17364817766693));
#277=DIRECTION('',(0.,0.17364817766693,0.984807753012208));
#278=DIRECTION('',(0.,-0.17364817766693,-0.984807753012208));
#279=DIRECTION('',(0.,-0.17364817766693,-0.984807753012208));
#280=DIRECTION('',(1.,0.,0.));
#281=DIRECTION('',(0.,1.,0.));
#282=DIRECTION('',(1.,0.,0.));
#283=DIRECTION('',(0.,1.,0.));
#284=CARTESIAN_POINT('',(0.,0.,0.));
#285=CARTESIAN_POINT('',(0.005,-0.0377620825024004,0.00454873611566124));
#286=CARTESIAN_POINT('',(0.,-0.0377620825024004,0.00454873611566124));
#287=CARTESIAN_POINT('',(0.,-0.0387468902554126,0.00472238429332818));
#288=CARTESIAN_POINT('',(0.,-0.0367772747493882,0.00437508793799432));
#289=CARTESIAN_POINT('',(0.005,-0.0387468902554126,0.00472238429332818));
#290=CARTESIAN_POINT('',(0.005,-0.0387468902554126,0.00472238429332818));
#291=CARTESIAN_POINT('',(0.005,-0.0377620825024004,0.00454873611566124));
#292=CARTESIAN_POINT('',(0.005,-0.0367772747493882,0.00437508793799432));
#293=CARTESIAN_POINT('',(0.005,-0.0367772747493882,0.00437508793799432));
#294=CARTESIAN_POINT('',(0.005,-0.0390941866107464,0.00275276878730375));
#295=CARTESIAN_POINT('',(0.,-0.0390941866107464,0.00275276878730375));
#296=CARTESIAN_POINT('',(0.,-0.0394414829660803,0.000783153281279339));
#297=CARTESIAN_POINT('',(0.005,-0.0394414829660803,0.000783153281279339));
#298=CARTESIAN_POINT('',(0.005,-0.0394414829660803,0.000783153281279339));
#299=CARTESIAN_POINT('',(0.005,-0.0390941866107464,0.00275276878730375));
#300=CARTESIAN_POINT('',(0.005,-0.0394414829660803,-0.000608423359360331));
#301=CARTESIAN_POINT('',(0.,-0.0394414829660803,-0.000608423359360331));
#302=CARTESIAN_POINT('',(0.,-0.0394414829660803,-0.002));
#303=CARTESIAN_POINT('',(0.005,-0.0394414829660803,-0.002));
#304=CARTESIAN_POINT('',(0.005,-0.0394414829660803,-0.002));
#305=CARTESIAN_POINT('',(0.005,-0.0394414829660803,-0.000608423359360331));
#306=CARTESIAN_POINT('',(0.005,-0.0341818983738668,-0.002));
#307=CARTESIAN_POINT('',(0.,-0.0341818983738668,-0.002));
#308=CARTESIAN_POINT('',(0.,-0.0279223137816533,-0.002));
#309=CARTESIAN_POINT('',(0.005,-0.0279223137816533,-0.002));
#310=CARTESIAN_POINT('',(0.005,-0.0279223137816533,-0.002));
#311=CARTESIAN_POINT('',(0.005,-0.0341818983738668,-0.002));
#312=CARTESIAN_POINT('',(0.005,-0.0279223137816533,0.0162341356777121));
#313=CARTESIAN_POINT('',(0.,-0.0279223137816533,0.0162341356777121));
#314=CARTESIAN_POINT('',(0.,-0.0279223137816533,0.0344682713554242));
#315=CARTESIAN_POINT('',(0.005,-0.0279223137816533,0.0344682713554242));
#316=CARTESIAN_POINT('',(0.005,-0.0279223137816533,0.0344682713554242));
#317=CARTESIAN_POINT('',(0.005,-0.0279223137816533,0.0162341356777121));
#318=CARTESIAN_POINT('',(0.005,-0.0284223137816533,0.0344682713554242));
#319=CARTESIAN_POINT('',(0.,-0.0284223137816533,0.0344682713554242));
#320=CARTESIAN_POINT('',(0.,-0.0289223137816533,0.0344682713554242));
#321=CARTESIAN_POINT('',(0.005,-0.0289223137816533,0.0344682713554242));
#322=CARTESIAN_POINT('',(0.005,-0.0289223137816533,0.0344682713554242));
#323=CARTESIAN_POINT('',(0.005,-0.0284223137816533,0.0344682713554242));
#324=CARTESIAN_POINT('',(0.005,-0.0319611568908242,0.0172341356777129));
#325=CARTESIAN_POINT('',(0.,-0.0319611568908242,0.0172341356777129));
#326=CARTESIAN_POINT('',(0.,-0.0349999999999951,1.45022882591661E-15));
#327=CARTESIAN_POINT('',(0.005,-0.0349999999999951,1.45022882591661E-15));
#328=CARTESIAN_POINT('',(0.005,-0.0349999999999951,1.45022882591661E-15));
#329=CARTESIAN_POINT('',(0.005,-0.0319611568908242,0.0172341356777129));
#330=CARTESIAN_POINT('',(0.005,-0.0357435298535194,0.000131104374140001));
#331=CARTESIAN_POINT('',(0.,-0.0357435298535194,0.000131104374140001));
#332=CARTESIAN_POINT('',(0.,-0.0374718674600559,0.000435856925945477));
#333=CARTESIAN_POINT('',(0.005,-0.0374718674600559,0.000435856925945477));
#334=CARTESIAN_POINT('',(0.005,-0.0374718674600559,0.000435856925945477));
#335=CARTESIAN_POINT('',(0.005,-0.0357435298535194,0.000131104374140001));
#336=CARTESIAN_POINT('',(0.005,-0.037124571104722,0.0024054724319699));
#337=CARTESIAN_POINT('',(0.,-0.037124571104722,0.0024054724319699));
#338=CARTESIAN_POINT('',(0.005,-0.037124571104722,0.0024054724319699));
#339=CARTESIAN_POINT('',(0.005,-0.0315771756949205,0.0310062520519663));
#340=CARTESIAN_POINT('',(0.,-0.0315771756949205,0.0310062520519663));
#341=MECHANICAL_DESIGN_GEOMETRIC_PRESENTATION_REPRESENTATION('',(#210),
#342);
#342=(
GEOMETRIC_REPRESENTATION_CONTEXT(3)
GLOBAL_UNCERTAINTY_ASSIGNED_CONTEXT((#343))
GLOBAL_UNIT_ASSIGNED_CONTEXT((#346,#345,#344))
REPRESENTATION_CONTEXT('Stand','TOP_LEVEL_ASSEMBLY_PART')
);
#343=UNCERTAINTY_MEASURE_WITH_UNIT(LENGTH_MEASURE(1.E-8),#346,
'DISTANCE_ACCURACY_VALUE','Maximum Tolerance applied to model');
#344=(
NAMED_UNIT(*)
SI_UNIT($,.STERADIAN.)
SOLID_ANGLE_UNIT()
);
#345=(
NAMED_UNIT(*)
PLANE_ANGLE_UNIT()
SI_UNIT($,.RADIAN.)
);
#346=(
LENGTH_UNIT()
NAMED_UNIT(*)
SI_UNIT($,.METRE.)
);
#347=PRODUCT_DEFINITION_SHAPE('','',#348);
#348=PRODUCT_DEFINITION('','',#350,#349);
#349=PRODUCT_DEFINITION_CONTEXT('',#356,'design');
#350=PRODUCT_DEFINITION_FORMATION_WITH_SPECIFIED_SOURCE('','',#352,
 .NOT_KNOWN.);
#351=PRODUCT_RELATED_PRODUCT_CATEGORY('','',(#352));
#352=PRODUCT('Stand','Stand','Stand',(#354));
#353=PRODUCT_CATEGORY('','');
#354=PRODUCT_CONTEXT('',#356,'mechanical');
#355=APPLICATION_PROTOCOL_DEFINITION('international standard',
'ap242_managed_model_based_3d_engineering',2020,#356);
#356=APPLICATION_CONTEXT('managed model based 3d engineering');
ENDSEC;
END-ISO-10303-21;
